<mxfile host="app.diagrams.net" agent="Mozilla/5.0 (Windows NT 10.0; Win64; x64) AppleWebKit/537.36 (KHTML, like Gecko) Chrome/130.0.0.0 Safari/537.36" version="24.8.3">
  <diagram name="Page-1" id="e56a1550-8fbb-45ad-956c-1786394a9013">
    <mxGraphModel grid="1" page="1" gridSize="10" guides="1" tooltips="1" connect="1" arrows="1" fold="1" pageScale="1" pageWidth="1100" pageHeight="850" background="none" math="0" shadow="0">
      <root>
        <mxCell id="0" />
        <mxCell id="1" parent="0" />
        <mxCell id="2e49270ec7c68f3f-19" value="Roles" style="swimlane;html=1;fontStyle=0;childLayout=stackLayout;horizontal=1;startSize=30;fillColor=#e0e0e0;horizontalStack=0;resizeParent=1;resizeLast=0;collapsible=1;marginBottom=0;swimlaneFillColor=#ffffff;align=center;rounded=0;shadow=0;comic=0;labelBackgroundColor=none;strokeWidth=1;fontFamily=Verdana;fontSize=14" vertex="1" parent="1">
          <mxGeometry x="-530" y="-193" width="160" height="174" as="geometry" />
        </mxCell>
        <mxCell id="2e49270ec7c68f3f-20" value="ID_roles" style="shape=partialRectangle;top=0;left=0;right=0;bottom=1;html=1;align=left;verticalAlign=middle;fillColor=none;spacingLeft=34;spacingRight=4;whiteSpace=wrap;overflow=hidden;rotatable=0;points=[[0,0.5],[1,0.5]];portConstraint=eastwest;dropTarget=0;fontStyle=5;" vertex="1" parent="2e49270ec7c68f3f-19">
          <mxGeometry y="30" width="160" height="30" as="geometry" />
        </mxCell>
        <mxCell id="2e49270ec7c68f3f-21" value="PK" style="shape=partialRectangle;top=0;left=0;bottom=0;html=1;fillColor=none;align=left;verticalAlign=middle;spacingLeft=4;spacingRight=4;whiteSpace=wrap;overflow=hidden;rotatable=0;points=[];portConstraint=eastwest;part=1;" vertex="1" connectable="0" parent="2e49270ec7c68f3f-20">
          <mxGeometry width="30" height="30" as="geometry" />
        </mxCell>
        <mxCell id="2e49270ec7c68f3f-22" value="ID_cliente" style="shape=partialRectangle;top=0;left=0;right=0;bottom=0;html=1;align=left;verticalAlign=top;fillColor=none;spacingLeft=34;spacingRight=4;whiteSpace=wrap;overflow=hidden;rotatable=0;points=[[0,0.5],[1,0.5]];portConstraint=eastwest;dropTarget=0;" vertex="1" parent="2e49270ec7c68f3f-19">
          <mxGeometry y="60" width="160" height="26" as="geometry" />
        </mxCell>
        <mxCell id="2e49270ec7c68f3f-23" value="FK" style="shape=partialRectangle;top=0;left=0;bottom=0;html=1;fillColor=none;align=left;verticalAlign=top;spacingLeft=4;spacingRight=4;whiteSpace=wrap;overflow=hidden;rotatable=0;points=[];portConstraint=eastwest;part=1;" vertex="1" connectable="0" parent="2e49270ec7c68f3f-22">
          <mxGeometry width="30" height="26" as="geometry" />
        </mxCell>
        <mxCell id="2e49270ec7c68f3f-24" value="ID_tecnico" style="shape=partialRectangle;top=0;left=0;right=0;bottom=0;html=1;align=left;verticalAlign=top;fillColor=none;spacingLeft=34;spacingRight=4;whiteSpace=wrap;overflow=hidden;rotatable=0;points=[[0,0.5],[1,0.5]];portConstraint=eastwest;dropTarget=0;" vertex="1" parent="2e49270ec7c68f3f-19">
          <mxGeometry y="86" width="160" height="26" as="geometry" />
        </mxCell>
        <mxCell id="2e49270ec7c68f3f-25" value="FK" style="shape=partialRectangle;top=0;left=0;bottom=0;html=1;fillColor=none;align=left;verticalAlign=top;spacingLeft=4;spacingRight=4;whiteSpace=wrap;overflow=hidden;rotatable=0;points=[];portConstraint=eastwest;part=1;" vertex="1" connectable="0" parent="2e49270ec7c68f3f-24">
          <mxGeometry width="30" height="26" as="geometry" />
        </mxCell>
        <mxCell id="2e49270ec7c68f3f-26" value="ID_admin" style="shape=partialRectangle;top=0;left=0;right=0;bottom=0;html=1;align=left;verticalAlign=top;fillColor=none;spacingLeft=34;spacingRight=4;whiteSpace=wrap;overflow=hidden;rotatable=0;points=[[0,0.5],[1,0.5]];portConstraint=eastwest;dropTarget=0;" vertex="1" parent="2e49270ec7c68f3f-19">
          <mxGeometry y="112" width="160" height="26" as="geometry" />
        </mxCell>
        <mxCell id="2e49270ec7c68f3f-27" value="FK" style="shape=partialRectangle;top=0;left=0;bottom=0;html=1;fillColor=none;align=left;verticalAlign=top;spacingLeft=4;spacingRight=4;whiteSpace=wrap;overflow=hidden;rotatable=0;points=[];portConstraint=eastwest;part=1;" vertex="1" connectable="0" parent="2e49270ec7c68f3f-26">
          <mxGeometry width="30" height="26" as="geometry" />
        </mxCell>
        <mxCell id="3rJ6d0Um_e3zVgP1eXMT-92" value="ID_Usuarios" style="shape=partialRectangle;top=0;left=0;right=0;bottom=0;html=1;align=left;verticalAlign=top;fillColor=none;spacingLeft=34;spacingRight=4;whiteSpace=wrap;overflow=hidden;rotatable=0;points=[[0,0.5],[1,0.5]];portConstraint=eastwest;dropTarget=0;" vertex="1" parent="2e49270ec7c68f3f-19">
          <mxGeometry y="138" width="160" height="26" as="geometry" />
        </mxCell>
        <mxCell id="3rJ6d0Um_e3zVgP1eXMT-93" value="FK" style="shape=partialRectangle;top=0;left=0;bottom=0;html=1;fillColor=none;align=left;verticalAlign=top;spacingLeft=4;spacingRight=4;whiteSpace=wrap;overflow=hidden;rotatable=0;points=[];portConstraint=eastwest;part=1;" connectable="0" vertex="1" parent="3rJ6d0Um_e3zVgP1eXMT-92">
          <mxGeometry width="30" height="26" as="geometry" />
        </mxCell>
        <mxCell id="2e49270ec7c68f3f-28" value="" style="shape=partialRectangle;top=0;left=0;right=0;bottom=0;html=1;align=left;verticalAlign=top;fillColor=none;spacingLeft=34;spacingRight=4;whiteSpace=wrap;overflow=hidden;rotatable=0;points=[[0,0.5],[1,0.5]];portConstraint=eastwest;dropTarget=0;" vertex="1" parent="2e49270ec7c68f3f-19">
          <mxGeometry y="164" width="160" height="10" as="geometry" />
        </mxCell>
        <mxCell id="2e49270ec7c68f3f-29" value="" style="shape=partialRectangle;top=0;left=0;bottom=0;html=1;fillColor=none;align=left;verticalAlign=top;spacingLeft=4;spacingRight=4;whiteSpace=wrap;overflow=hidden;rotatable=0;points=[];portConstraint=eastwest;part=1;" vertex="1" connectable="0" parent="2e49270ec7c68f3f-28">
          <mxGeometry width="30" height="10" as="geometry" />
        </mxCell>
        <mxCell id="2e49270ec7c68f3f-80" value="Usuarios" style="swimlane;html=1;fontStyle=0;childLayout=stackLayout;horizontal=1;startSize=26;fillColor=#e0e0e0;horizontalStack=0;resizeParent=1;resizeLast=0;collapsible=1;marginBottom=0;swimlaneFillColor=#ffffff;align=center;rounded=0;shadow=0;comic=0;labelBackgroundColor=none;strokeWidth=1;fontFamily=Verdana;fontSize=14" vertex="1" parent="1">
          <mxGeometry x="-190" y="50" width="160" height="268" as="geometry" />
        </mxCell>
        <mxCell id="2e49270ec7c68f3f-81" value="&lt;span style=&quot;font-weight: 400; text-align: center; text-wrap-mode: nowrap;&quot;&gt;+ID _usuario&lt;/span&gt;&lt;div&gt;&lt;span style=&quot;font-weight: 400; text-align: center; text-wrap-mode: nowrap;&quot;&gt;&lt;br&gt;&lt;/span&gt;&lt;/div&gt;" style="shape=partialRectangle;top=0;left=0;right=0;bottom=1;html=1;align=left;verticalAlign=middle;fillColor=none;spacingLeft=34;spacingRight=4;whiteSpace=wrap;overflow=hidden;rotatable=0;points=[[0,0.5],[1,0.5]];portConstraint=eastwest;dropTarget=0;fontStyle=5;" vertex="1" parent="2e49270ec7c68f3f-80">
          <mxGeometry y="26" width="160" height="30" as="geometry" />
        </mxCell>
        <mxCell id="2e49270ec7c68f3f-82" value="PK" style="shape=partialRectangle;top=0;left=0;bottom=0;html=1;fillColor=none;align=left;verticalAlign=middle;spacingLeft=4;spacingRight=4;whiteSpace=wrap;overflow=hidden;rotatable=0;points=[];portConstraint=eastwest;part=1;" vertex="1" connectable="0" parent="2e49270ec7c68f3f-81">
          <mxGeometry width="30" height="30" as="geometry" />
        </mxCell>
        <mxCell id="3rJ6d0Um_e3zVgP1eXMT-101" value="&lt;span style=&quot;text-decoration-line: underline;&quot;&gt;ID_&lt;/span&gt;&lt;i style=&quot;background-color: initial;&quot;&gt;Iniciar_Sesion&lt;/i&gt;" style="shape=partialRectangle;top=0;left=0;right=0;bottom=0;html=1;align=left;verticalAlign=top;fillColor=none;spacingLeft=34;spacingRight=4;whiteSpace=wrap;overflow=hidden;rotatable=0;points=[[0,0.5],[1,0.5]];portConstraint=eastwest;dropTarget=0;" vertex="1" parent="2e49270ec7c68f3f-80">
          <mxGeometry y="56" width="160" height="26" as="geometry" />
        </mxCell>
        <mxCell id="3rJ6d0Um_e3zVgP1eXMT-102" value="FK" style="shape=partialRectangle;top=0;left=0;bottom=0;html=1;fillColor=none;align=left;verticalAlign=top;spacingLeft=4;spacingRight=4;whiteSpace=wrap;overflow=hidden;rotatable=0;points=[];portConstraint=eastwest;part=1;" connectable="0" vertex="1" parent="3rJ6d0Um_e3zVgP1eXMT-101">
          <mxGeometry width="30" height="26" as="geometry" />
        </mxCell>
        <mxCell id="2e49270ec7c68f3f-83" value="&lt;span style=&quot;text-align: center; text-wrap-mode: nowrap; text-decoration-line: underline;&quot;&gt;ID_Soporte&lt;/span&gt;" style="shape=partialRectangle;top=0;left=0;right=0;bottom=0;html=1;align=left;verticalAlign=top;fillColor=none;spacingLeft=34;spacingRight=4;whiteSpace=wrap;overflow=hidden;rotatable=0;points=[[0,0.5],[1,0.5]];portConstraint=eastwest;dropTarget=0;" vertex="1" parent="2e49270ec7c68f3f-80">
          <mxGeometry y="82" width="160" height="26" as="geometry" />
        </mxCell>
        <mxCell id="2e49270ec7c68f3f-84" value="FK" style="shape=partialRectangle;top=0;left=0;bottom=0;html=1;fillColor=none;align=left;verticalAlign=top;spacingLeft=4;spacingRight=4;whiteSpace=wrap;overflow=hidden;rotatable=0;points=[];portConstraint=eastwest;part=1;" vertex="1" connectable="0" parent="2e49270ec7c68f3f-83">
          <mxGeometry width="30" height="26" as="geometry" />
        </mxCell>
        <mxCell id="3rJ6d0Um_e3zVgP1eXMT-129" value="&lt;span style=&quot;text-align: center; text-wrap-mode: nowrap; text-decoration-line: underline;&quot;&gt;ID_informe&lt;/span&gt;" style="shape=partialRectangle;top=0;left=0;right=0;bottom=0;html=1;align=left;verticalAlign=top;fillColor=none;spacingLeft=34;spacingRight=4;whiteSpace=wrap;overflow=hidden;rotatable=0;points=[[0,0.5],[1,0.5]];portConstraint=eastwest;dropTarget=0;" vertex="1" parent="2e49270ec7c68f3f-80">
          <mxGeometry y="108" width="160" height="26" as="geometry" />
        </mxCell>
        <mxCell id="3rJ6d0Um_e3zVgP1eXMT-130" value="FK" style="shape=partialRectangle;top=0;left=0;bottom=0;html=1;fillColor=none;align=left;verticalAlign=top;spacingLeft=4;spacingRight=4;whiteSpace=wrap;overflow=hidden;rotatable=0;points=[];portConstraint=eastwest;part=1;" connectable="0" vertex="1" parent="3rJ6d0Um_e3zVgP1eXMT-129">
          <mxGeometry width="30" height="26" as="geometry" />
        </mxCell>
        <mxCell id="3rJ6d0Um_e3zVgP1eXMT-99" value="&lt;span style=&quot;text-align: center; text-wrap-mode: nowrap;&quot;&gt;+nombre&lt;/span&gt;" style="shape=partialRectangle;top=0;left=0;right=0;bottom=0;html=1;align=left;verticalAlign=top;fillColor=none;spacingLeft=34;spacingRight=4;whiteSpace=wrap;overflow=hidden;rotatable=0;points=[[0,0.5],[1,0.5]];portConstraint=eastwest;dropTarget=0;" vertex="1" parent="2e49270ec7c68f3f-80">
          <mxGeometry y="134" width="160" height="26" as="geometry" />
        </mxCell>
        <mxCell id="3rJ6d0Um_e3zVgP1eXMT-100" value="" style="shape=partialRectangle;top=0;left=0;bottom=0;html=1;fillColor=none;align=left;verticalAlign=top;spacingLeft=4;spacingRight=4;whiteSpace=wrap;overflow=hidden;rotatable=0;points=[];portConstraint=eastwest;part=1;" connectable="0" vertex="1" parent="3rJ6d0Um_e3zVgP1eXMT-99">
          <mxGeometry width="30" height="26" as="geometry" />
        </mxCell>
        <mxCell id="2e49270ec7c68f3f-85" value="+apellido" style="shape=partialRectangle;top=0;left=0;right=0;bottom=0;html=1;align=left;verticalAlign=top;fillColor=none;spacingLeft=34;spacingRight=4;whiteSpace=wrap;overflow=hidden;rotatable=0;points=[[0,0.5],[1,0.5]];portConstraint=eastwest;dropTarget=0;" vertex="1" parent="2e49270ec7c68f3f-80">
          <mxGeometry y="160" width="160" height="26" as="geometry" />
        </mxCell>
        <mxCell id="2e49270ec7c68f3f-86" value="" style="shape=partialRectangle;top=0;left=0;bottom=0;html=1;fillColor=none;align=left;verticalAlign=top;spacingLeft=4;spacingRight=4;whiteSpace=wrap;overflow=hidden;rotatable=0;points=[];portConstraint=eastwest;part=1;" vertex="1" connectable="0" parent="2e49270ec7c68f3f-85">
          <mxGeometry width="30" height="26" as="geometry" />
        </mxCell>
        <mxCell id="2e49270ec7c68f3f-87" value="+telefono&lt;div&gt;&lt;br&gt;&lt;div&gt;+correo _electronico&lt;/div&gt;&lt;/div&gt;" style="shape=partialRectangle;top=0;left=0;right=0;bottom=0;html=1;align=left;verticalAlign=top;fillColor=none;spacingLeft=34;spacingRight=4;whiteSpace=wrap;overflow=hidden;rotatable=0;points=[[0,0.5],[1,0.5]];portConstraint=eastwest;dropTarget=0;" vertex="1" parent="2e49270ec7c68f3f-80">
          <mxGeometry y="186" width="160" height="72" as="geometry" />
        </mxCell>
        <mxCell id="2e49270ec7c68f3f-88" value="" style="shape=partialRectangle;top=0;left=0;bottom=0;html=1;fillColor=none;align=left;verticalAlign=top;spacingLeft=4;spacingRight=4;whiteSpace=wrap;overflow=hidden;rotatable=0;points=[];portConstraint=eastwest;part=1;" vertex="1" connectable="0" parent="2e49270ec7c68f3f-87">
          <mxGeometry width="30" height="72" as="geometry" />
        </mxCell>
        <mxCell id="2e49270ec7c68f3f-89" value="" style="shape=partialRectangle;top=0;left=0;right=0;bottom=0;html=1;align=left;verticalAlign=top;fillColor=none;spacingLeft=34;spacingRight=4;whiteSpace=wrap;overflow=hidden;rotatable=0;points=[[0,0.5],[1,0.5]];portConstraint=eastwest;dropTarget=0;" vertex="1" parent="2e49270ec7c68f3f-80">
          <mxGeometry y="258" width="160" height="10" as="geometry" />
        </mxCell>
        <mxCell id="2e49270ec7c68f3f-90" value="" style="shape=partialRectangle;top=0;left=0;bottom=0;html=1;fillColor=none;align=left;verticalAlign=top;spacingLeft=4;spacingRight=4;whiteSpace=wrap;overflow=hidden;rotatable=0;points=[];portConstraint=eastwest;part=1;" vertex="1" connectable="0" parent="2e49270ec7c68f3f-89">
          <mxGeometry width="30" height="10" as="geometry" />
        </mxCell>
        <mxCell id="4JsmEMZr_gFzECtk1Gia-3" value="Administrador" style="swimlane;html=1;fontStyle=0;childLayout=stackLayout;horizontal=1;startSize=26;fillColor=#e0e0e0;horizontalStack=0;resizeParent=1;resizeLast=0;collapsible=1;marginBottom=0;swimlaneFillColor=#ffffff;align=center;rounded=0;shadow=0;comic=0;labelBackgroundColor=none;strokeWidth=1;fontFamily=Verdana;fontSize=14" vertex="1" parent="1">
          <mxGeometry x="-760" y="-110" width="160" height="170" as="geometry" />
        </mxCell>
        <mxCell id="4JsmEMZr_gFzECtk1Gia-4" value="&lt;span style=&quot;font-weight: 400; text-align: center; text-wrap-mode: nowrap;&quot;&gt;ID_admin&lt;/span&gt;" style="shape=partialRectangle;top=0;left=0;right=0;bottom=1;html=1;align=left;verticalAlign=middle;fillColor=none;spacingLeft=34;spacingRight=4;whiteSpace=wrap;overflow=hidden;rotatable=0;points=[[0,0.5],[1,0.5]];portConstraint=eastwest;dropTarget=0;fontStyle=5;" vertex="1" parent="4JsmEMZr_gFzECtk1Gia-3">
          <mxGeometry y="26" width="160" height="30" as="geometry" />
        </mxCell>
        <mxCell id="4JsmEMZr_gFzECtk1Gia-5" value="PK" style="shape=partialRectangle;top=0;left=0;bottom=0;html=1;fillColor=none;align=left;verticalAlign=middle;spacingLeft=4;spacingRight=4;whiteSpace=wrap;overflow=hidden;rotatable=0;points=[];portConstraint=eastwest;part=1;" connectable="0" vertex="1" parent="4JsmEMZr_gFzECtk1Gia-4">
          <mxGeometry width="30" height="30" as="geometry" />
        </mxCell>
        <mxCell id="4JsmEMZr_gFzECtk1Gia-8" value="&lt;div style=&quot;text-align: center; text-wrap-mode: nowrap;&quot;&gt;+Nombre&lt;/div&gt;&lt;div&gt;&lt;br&gt;&lt;/div&gt;" style="shape=partialRectangle;top=0;left=0;right=0;bottom=0;html=1;align=left;verticalAlign=top;fillColor=none;spacingLeft=34;spacingRight=4;whiteSpace=wrap;overflow=hidden;rotatable=0;points=[[0,0.5],[1,0.5]];portConstraint=eastwest;dropTarget=0;" vertex="1" parent="4JsmEMZr_gFzECtk1Gia-3">
          <mxGeometry y="56" width="160" height="26" as="geometry" />
        </mxCell>
        <mxCell id="4JsmEMZr_gFzECtk1Gia-9" value="" style="shape=partialRectangle;top=0;left=0;bottom=0;html=1;fillColor=none;align=left;verticalAlign=top;spacingLeft=4;spacingRight=4;whiteSpace=wrap;overflow=hidden;rotatable=0;points=[];portConstraint=eastwest;part=1;" connectable="0" vertex="1" parent="4JsmEMZr_gFzECtk1Gia-8">
          <mxGeometry width="30" height="26" as="geometry" />
        </mxCell>
        <mxCell id="4JsmEMZr_gFzECtk1Gia-10" value="&lt;div style=&quot;text-align: center; text-wrap-mode: nowrap;&quot;&gt;&lt;span style=&quot;background-color: initial;&quot;&gt;+Apellido&amp;nbsp;&lt;/span&gt;&lt;/div&gt;&lt;div&gt;&lt;span style=&quot;background-color: initial;&quot;&gt;&lt;br&gt;&lt;/span&gt;&lt;/div&gt;" style="shape=partialRectangle;top=0;left=0;right=0;bottom=0;html=1;align=left;verticalAlign=top;fillColor=none;spacingLeft=34;spacingRight=4;whiteSpace=wrap;overflow=hidden;rotatable=0;points=[[0,0.5],[1,0.5]];portConstraint=eastwest;dropTarget=0;" vertex="1" parent="4JsmEMZr_gFzECtk1Gia-3">
          <mxGeometry y="82" width="160" height="26" as="geometry" />
        </mxCell>
        <mxCell id="4JsmEMZr_gFzECtk1Gia-11" value="" style="shape=partialRectangle;top=0;left=0;bottom=0;html=1;fillColor=none;align=left;verticalAlign=top;spacingLeft=4;spacingRight=4;whiteSpace=wrap;overflow=hidden;rotatable=0;points=[];portConstraint=eastwest;part=1;" connectable="0" vertex="1" parent="4JsmEMZr_gFzECtk1Gia-10">
          <mxGeometry width="30" height="26" as="geometry" />
        </mxCell>
        <mxCell id="4JsmEMZr_gFzECtk1Gia-28" value="&lt;div style=&quot;text-align: center; text-wrap-mode: nowrap;&quot;&gt;+Telefono&lt;/div&gt;" style="shape=partialRectangle;top=0;left=0;right=0;bottom=0;html=1;align=left;verticalAlign=top;fillColor=none;spacingLeft=34;spacingRight=4;whiteSpace=wrap;overflow=hidden;rotatable=0;points=[[0,0.5],[1,0.5]];portConstraint=eastwest;dropTarget=0;" vertex="1" parent="4JsmEMZr_gFzECtk1Gia-3">
          <mxGeometry y="108" width="160" height="26" as="geometry" />
        </mxCell>
        <mxCell id="4JsmEMZr_gFzECtk1Gia-29" value="" style="shape=partialRectangle;top=0;left=0;bottom=0;html=1;fillColor=none;align=left;verticalAlign=top;spacingLeft=4;spacingRight=4;whiteSpace=wrap;overflow=hidden;rotatable=0;points=[];portConstraint=eastwest;part=1;" connectable="0" vertex="1" parent="4JsmEMZr_gFzECtk1Gia-28">
          <mxGeometry width="30" height="26" as="geometry" />
        </mxCell>
        <mxCell id="4JsmEMZr_gFzECtk1Gia-30" value="&lt;div style=&quot;text-align: center; text-wrap-mode: nowrap;&quot;&gt;+Correo_electronico&lt;/div&gt;" style="shape=partialRectangle;top=0;left=0;right=0;bottom=0;html=1;align=left;verticalAlign=top;fillColor=none;spacingLeft=34;spacingRight=4;whiteSpace=wrap;overflow=hidden;rotatable=0;points=[[0,0.5],[1,0.5]];portConstraint=eastwest;dropTarget=0;" vertex="1" parent="4JsmEMZr_gFzECtk1Gia-3">
          <mxGeometry y="134" width="160" height="26" as="geometry" />
        </mxCell>
        <mxCell id="4JsmEMZr_gFzECtk1Gia-31" value="" style="shape=partialRectangle;top=0;left=0;bottom=0;html=1;fillColor=none;align=left;verticalAlign=top;spacingLeft=4;spacingRight=4;whiteSpace=wrap;overflow=hidden;rotatable=0;points=[];portConstraint=eastwest;part=1;" connectable="0" vertex="1" parent="4JsmEMZr_gFzECtk1Gia-30">
          <mxGeometry width="30" height="26" as="geometry" />
        </mxCell>
        <mxCell id="4JsmEMZr_gFzECtk1Gia-12" value="" style="shape=partialRectangle;top=0;left=0;right=0;bottom=0;html=1;align=left;verticalAlign=top;fillColor=none;spacingLeft=34;spacingRight=4;whiteSpace=wrap;overflow=hidden;rotatable=0;points=[[0,0.5],[1,0.5]];portConstraint=eastwest;dropTarget=0;" vertex="1" parent="4JsmEMZr_gFzECtk1Gia-3">
          <mxGeometry y="160" width="160" height="10" as="geometry" />
        </mxCell>
        <mxCell id="4JsmEMZr_gFzECtk1Gia-13" value="" style="shape=partialRectangle;top=0;left=0;bottom=0;html=1;fillColor=none;align=left;verticalAlign=top;spacingLeft=4;spacingRight=4;whiteSpace=wrap;overflow=hidden;rotatable=0;points=[];portConstraint=eastwest;part=1;" connectable="0" vertex="1" parent="4JsmEMZr_gFzECtk1Gia-12">
          <mxGeometry width="30" height="10" as="geometry" />
        </mxCell>
        <mxCell id="4JsmEMZr_gFzECtk1Gia-16" value="Informe" style="swimlane;html=1;fontStyle=0;childLayout=stackLayout;horizontal=1;startSize=26;fillColor=#e0e0e0;horizontalStack=0;resizeParent=1;resizeLast=0;collapsible=1;marginBottom=0;swimlaneFillColor=#ffffff;align=center;rounded=0;shadow=0;comic=0;labelBackgroundColor=none;strokeWidth=1;fontFamily=Verdana;fontSize=14" vertex="1" parent="1">
          <mxGeometry x="-490" y="240" width="160" height="196" as="geometry" />
        </mxCell>
        <mxCell id="4JsmEMZr_gFzECtk1Gia-17" value="&lt;div style=&quot;font-weight: 400;&quot;&gt;ID_informe&lt;/div&gt;&lt;div&gt;&lt;br&gt;&lt;/div&gt;" style="shape=partialRectangle;top=0;left=0;right=0;bottom=1;html=1;align=left;verticalAlign=middle;fillColor=none;spacingLeft=34;spacingRight=4;whiteSpace=wrap;overflow=hidden;rotatable=0;points=[[0,0.5],[1,0.5]];portConstraint=eastwest;dropTarget=0;fontStyle=5;" vertex="1" parent="4JsmEMZr_gFzECtk1Gia-16">
          <mxGeometry y="26" width="160" height="30" as="geometry" />
        </mxCell>
        <mxCell id="4JsmEMZr_gFzECtk1Gia-18" value="PK" style="shape=partialRectangle;top=0;left=0;bottom=0;html=1;fillColor=none;align=left;verticalAlign=middle;spacingLeft=4;spacingRight=4;whiteSpace=wrap;overflow=hidden;rotatable=0;points=[];portConstraint=eastwest;part=1;" connectable="0" vertex="1" parent="4JsmEMZr_gFzECtk1Gia-17">
          <mxGeometry width="30" height="30" as="geometry" />
        </mxCell>
        <mxCell id="4JsmEMZr_gFzECtk1Gia-19" value="&lt;div&gt;+tipo_informe&lt;/div&gt;&lt;div&gt;&lt;br&gt;&lt;/div&gt;" style="shape=partialRectangle;top=0;left=0;right=0;bottom=0;html=1;align=left;verticalAlign=top;fillColor=none;spacingLeft=34;spacingRight=4;whiteSpace=wrap;overflow=hidden;rotatable=0;points=[[0,0.5],[1,0.5]];portConstraint=eastwest;dropTarget=0;" vertex="1" parent="4JsmEMZr_gFzECtk1Gia-16">
          <mxGeometry y="56" width="160" height="26" as="geometry" />
        </mxCell>
        <mxCell id="4JsmEMZr_gFzECtk1Gia-20" value="" style="shape=partialRectangle;top=0;left=0;bottom=0;html=1;fillColor=none;align=left;verticalAlign=top;spacingLeft=4;spacingRight=4;whiteSpace=wrap;overflow=hidden;rotatable=0;points=[];portConstraint=eastwest;part=1;" connectable="0" vertex="1" parent="4JsmEMZr_gFzECtk1Gia-19">
          <mxGeometry width="30" height="26" as="geometry" />
        </mxCell>
        <mxCell id="4JsmEMZr_gFzECtk1Gia-21" value="&lt;div&gt;+ID_datos&lt;/div&gt;&lt;div&gt;&lt;br&gt;&lt;/div&gt;&lt;div&gt;&lt;/div&gt;" style="shape=partialRectangle;top=0;left=0;right=0;bottom=0;html=1;align=left;verticalAlign=top;fillColor=none;spacingLeft=34;spacingRight=4;whiteSpace=wrap;overflow=hidden;rotatable=0;points=[[0,0.5],[1,0.5]];portConstraint=eastwest;dropTarget=0;" vertex="1" parent="4JsmEMZr_gFzECtk1Gia-16">
          <mxGeometry y="82" width="160" height="26" as="geometry" />
        </mxCell>
        <mxCell id="4JsmEMZr_gFzECtk1Gia-22" value="FK" style="shape=partialRectangle;top=0;left=0;bottom=0;html=1;fillColor=none;align=left;verticalAlign=top;spacingLeft=4;spacingRight=4;whiteSpace=wrap;overflow=hidden;rotatable=0;points=[];portConstraint=eastwest;part=1;" connectable="0" vertex="1" parent="4JsmEMZr_gFzECtk1Gia-21">
          <mxGeometry width="30" height="26" as="geometry" />
        </mxCell>
        <mxCell id="4JsmEMZr_gFzECtk1Gia-23" value="&lt;div&gt;+ID_tipo_equipo&lt;/div&gt;&lt;div&gt;&lt;br&gt;&lt;/div&gt;" style="shape=partialRectangle;top=0;left=0;right=0;bottom=0;html=1;align=left;verticalAlign=top;fillColor=none;spacingLeft=34;spacingRight=4;whiteSpace=wrap;overflow=hidden;rotatable=0;points=[[0,0.5],[1,0.5]];portConstraint=eastwest;dropTarget=0;" vertex="1" parent="4JsmEMZr_gFzECtk1Gia-16">
          <mxGeometry y="108" width="160" height="26" as="geometry" />
        </mxCell>
        <mxCell id="4JsmEMZr_gFzECtk1Gia-24" value="FK" style="shape=partialRectangle;top=0;left=0;bottom=0;html=1;fillColor=none;align=left;verticalAlign=top;spacingLeft=4;spacingRight=4;whiteSpace=wrap;overflow=hidden;rotatable=0;points=[];portConstraint=eastwest;part=1;" connectable="0" vertex="1" parent="4JsmEMZr_gFzECtk1Gia-23">
          <mxGeometry width="30" height="26" as="geometry" />
        </mxCell>
        <mxCell id="3rJ6d0Um_e3zVgP1eXMT-30" value="&lt;div&gt;+informacion_limpieza&amp;nbsp;&lt;/div&gt;&lt;div&gt;&lt;br&gt;&lt;/div&gt;" style="shape=partialRectangle;top=0;left=0;right=0;bottom=0;html=1;align=left;verticalAlign=top;fillColor=none;spacingLeft=34;spacingRight=4;whiteSpace=wrap;overflow=hidden;rotatable=0;points=[[0,0.5],[1,0.5]];portConstraint=eastwest;dropTarget=0;" vertex="1" parent="4JsmEMZr_gFzECtk1Gia-16">
          <mxGeometry y="134" width="160" height="26" as="geometry" />
        </mxCell>
        <mxCell id="3rJ6d0Um_e3zVgP1eXMT-31" value="" style="shape=partialRectangle;top=0;left=0;bottom=0;html=1;fillColor=none;align=left;verticalAlign=top;spacingLeft=4;spacingRight=4;whiteSpace=wrap;overflow=hidden;rotatable=0;points=[];portConstraint=eastwest;part=1;" connectable="0" vertex="1" parent="3rJ6d0Um_e3zVgP1eXMT-30">
          <mxGeometry width="30" height="26" as="geometry" />
        </mxCell>
        <mxCell id="3rJ6d0Um_e3zVgP1eXMT-32" value="&lt;div&gt;+informacion_electrica&lt;/div&gt;" style="shape=partialRectangle;top=0;left=0;right=0;bottom=0;html=1;align=left;verticalAlign=top;fillColor=none;spacingLeft=34;spacingRight=4;whiteSpace=wrap;overflow=hidden;rotatable=0;points=[[0,0.5],[1,0.5]];portConstraint=eastwest;dropTarget=0;" vertex="1" parent="4JsmEMZr_gFzECtk1Gia-16">
          <mxGeometry y="160" width="160" height="26" as="geometry" />
        </mxCell>
        <mxCell id="3rJ6d0Um_e3zVgP1eXMT-33" value="" style="shape=partialRectangle;top=0;left=0;bottom=0;html=1;fillColor=none;align=left;verticalAlign=top;spacingLeft=4;spacingRight=4;whiteSpace=wrap;overflow=hidden;rotatable=0;points=[];portConstraint=eastwest;part=1;" connectable="0" vertex="1" parent="3rJ6d0Um_e3zVgP1eXMT-32">
          <mxGeometry width="30" height="26" as="geometry" />
        </mxCell>
        <mxCell id="4JsmEMZr_gFzECtk1Gia-25" value="" style="shape=partialRectangle;top=0;left=0;right=0;bottom=0;html=1;align=left;verticalAlign=top;fillColor=none;spacingLeft=34;spacingRight=4;whiteSpace=wrap;overflow=hidden;rotatable=0;points=[[0,0.5],[1,0.5]];portConstraint=eastwest;dropTarget=0;" vertex="1" parent="4JsmEMZr_gFzECtk1Gia-16">
          <mxGeometry y="186" width="160" height="10" as="geometry" />
        </mxCell>
        <mxCell id="4JsmEMZr_gFzECtk1Gia-26" value="" style="shape=partialRectangle;top=0;left=0;bottom=0;html=1;fillColor=none;align=left;verticalAlign=top;spacingLeft=4;spacingRight=4;whiteSpace=wrap;overflow=hidden;rotatable=0;points=[];portConstraint=eastwest;part=1;" connectable="0" vertex="1" parent="4JsmEMZr_gFzECtk1Gia-25">
          <mxGeometry width="30" height="10" as="geometry" />
        </mxCell>
        <mxCell id="3rJ6d0Um_e3zVgP1eXMT-10" value="Cliente" style="swimlane;html=1;fontStyle=0;childLayout=stackLayout;horizontal=1;startSize=26;fillColor=#e0e0e0;horizontalStack=0;resizeParent=1;resizeLast=0;collapsible=1;marginBottom=0;swimlaneFillColor=#ffffff;align=center;rounded=0;shadow=0;comic=0;labelBackgroundColor=none;strokeWidth=1;fontFamily=Verdana;fontSize=14" vertex="1" parent="1">
          <mxGeometry x="-320" y="-360" width="160" height="160" as="geometry" />
        </mxCell>
        <mxCell id="3rJ6d0Um_e3zVgP1eXMT-11" value="&lt;span style=&quot;font-weight: 400; text-align: center; text-wrap-mode: nowrap;&quot;&gt;ID_cliente&lt;/span&gt;" style="shape=partialRectangle;top=0;left=0;right=0;bottom=1;html=1;align=left;verticalAlign=middle;fillColor=none;spacingLeft=34;spacingRight=4;whiteSpace=wrap;overflow=hidden;rotatable=0;points=[[0,0.5],[1,0.5]];portConstraint=eastwest;dropTarget=0;fontStyle=5;" vertex="1" parent="3rJ6d0Um_e3zVgP1eXMT-10">
          <mxGeometry y="26" width="160" height="30" as="geometry" />
        </mxCell>
        <mxCell id="3rJ6d0Um_e3zVgP1eXMT-12" value="PK" style="shape=partialRectangle;top=0;left=0;bottom=0;html=1;fillColor=none;align=left;verticalAlign=middle;spacingLeft=4;spacingRight=4;whiteSpace=wrap;overflow=hidden;rotatable=0;points=[];portConstraint=eastwest;part=1;" connectable="0" vertex="1" parent="3rJ6d0Um_e3zVgP1eXMT-11">
          <mxGeometry width="30" height="30" as="geometry" />
        </mxCell>
        <mxCell id="3rJ6d0Um_e3zVgP1eXMT-13" value="&lt;div style=&quot;text-align: center; text-wrap-mode: nowrap;&quot;&gt;+Nombre&lt;/div&gt;&lt;div&gt;&lt;br&gt;&lt;/div&gt;" style="shape=partialRectangle;top=0;left=0;right=0;bottom=0;html=1;align=left;verticalAlign=top;fillColor=none;spacingLeft=34;spacingRight=4;whiteSpace=wrap;overflow=hidden;rotatable=0;points=[[0,0.5],[1,0.5]];portConstraint=eastwest;dropTarget=0;" vertex="1" parent="3rJ6d0Um_e3zVgP1eXMT-10">
          <mxGeometry y="56" width="160" height="26" as="geometry" />
        </mxCell>
        <mxCell id="3rJ6d0Um_e3zVgP1eXMT-14" value="" style="shape=partialRectangle;top=0;left=0;bottom=0;html=1;fillColor=none;align=left;verticalAlign=top;spacingLeft=4;spacingRight=4;whiteSpace=wrap;overflow=hidden;rotatable=0;points=[];portConstraint=eastwest;part=1;" connectable="0" vertex="1" parent="3rJ6d0Um_e3zVgP1eXMT-13">
          <mxGeometry width="30" height="26" as="geometry" />
        </mxCell>
        <mxCell id="3rJ6d0Um_e3zVgP1eXMT-15" value="&lt;span style=&quot;text-align: center; text-wrap-mode: nowrap;&quot;&gt;+Apellido&lt;/span&gt;" style="shape=partialRectangle;top=0;left=0;right=0;bottom=0;html=1;align=left;verticalAlign=top;fillColor=none;spacingLeft=34;spacingRight=4;whiteSpace=wrap;overflow=hidden;rotatable=0;points=[[0,0.5],[1,0.5]];portConstraint=eastwest;dropTarget=0;" vertex="1" parent="3rJ6d0Um_e3zVgP1eXMT-10">
          <mxGeometry y="82" width="160" height="26" as="geometry" />
        </mxCell>
        <mxCell id="3rJ6d0Um_e3zVgP1eXMT-16" value="" style="shape=partialRectangle;top=0;left=0;bottom=0;html=1;fillColor=none;align=left;verticalAlign=top;spacingLeft=4;spacingRight=4;whiteSpace=wrap;overflow=hidden;rotatable=0;points=[];portConstraint=eastwest;part=1;" connectable="0" vertex="1" parent="3rJ6d0Um_e3zVgP1eXMT-15">
          <mxGeometry width="30" height="26" as="geometry" />
        </mxCell>
        <mxCell id="3rJ6d0Um_e3zVgP1eXMT-24" value="&lt;span style=&quot;text-align: center; text-wrap-mode: nowrap;&quot;&gt;+Telefono&lt;/span&gt;" style="shape=partialRectangle;top=0;left=0;right=0;bottom=0;html=1;align=left;verticalAlign=top;fillColor=none;spacingLeft=34;spacingRight=4;whiteSpace=wrap;overflow=hidden;rotatable=0;points=[[0,0.5],[1,0.5]];portConstraint=eastwest;dropTarget=0;" vertex="1" parent="3rJ6d0Um_e3zVgP1eXMT-10">
          <mxGeometry y="108" width="160" height="26" as="geometry" />
        </mxCell>
        <mxCell id="3rJ6d0Um_e3zVgP1eXMT-25" value="" style="shape=partialRectangle;top=0;left=0;bottom=0;html=1;fillColor=none;align=left;verticalAlign=top;spacingLeft=4;spacingRight=4;whiteSpace=wrap;overflow=hidden;rotatable=0;points=[];portConstraint=eastwest;part=1;" connectable="0" vertex="1" parent="3rJ6d0Um_e3zVgP1eXMT-24">
          <mxGeometry width="30" height="26" as="geometry" />
        </mxCell>
        <mxCell id="3rJ6d0Um_e3zVgP1eXMT-26" value="&lt;span style=&quot;text-align: center; text-wrap-mode: nowrap;&quot;&gt;+Correo_electronico&lt;/span&gt;" style="shape=partialRectangle;top=0;left=0;right=0;bottom=0;html=1;align=left;verticalAlign=top;fillColor=none;spacingLeft=34;spacingRight=4;whiteSpace=wrap;overflow=hidden;rotatable=0;points=[[0,0.5],[1,0.5]];portConstraint=eastwest;dropTarget=0;" vertex="1" parent="3rJ6d0Um_e3zVgP1eXMT-10">
          <mxGeometry y="134" width="160" height="26" as="geometry" />
        </mxCell>
        <mxCell id="3rJ6d0Um_e3zVgP1eXMT-27" value="" style="shape=partialRectangle;top=0;left=0;bottom=0;html=1;fillColor=none;align=left;verticalAlign=top;spacingLeft=4;spacingRight=4;whiteSpace=wrap;overflow=hidden;rotatable=0;points=[];portConstraint=eastwest;part=1;" connectable="0" vertex="1" parent="3rJ6d0Um_e3zVgP1eXMT-26">
          <mxGeometry width="30" height="26" as="geometry" />
        </mxCell>
        <mxCell id="3rJ6d0Um_e3zVgP1eXMT-95" style="edgeStyle=orthogonalEdgeStyle;rounded=0;orthogonalLoop=1;jettySize=auto;html=1;exitX=0;exitY=0.5;exitDx=0;exitDy=0;" edge="1" parent="1" source="3rJ6d0Um_e3zVgP1eXMT-35" target="2e49270ec7c68f3f-24">
          <mxGeometry relative="1" as="geometry">
            <Array as="points">
              <mxPoint x="-200" y="-152" />
              <mxPoint x="-200" y="-94" />
            </Array>
          </mxGeometry>
        </mxCell>
        <mxCell id="3rJ6d0Um_e3zVgP1eXMT-34" value="Tecnico" style="swimlane;html=1;fontStyle=0;childLayout=stackLayout;horizontal=1;startSize=26;fillColor=#e0e0e0;horizontalStack=0;resizeParent=1;resizeLast=0;collapsible=1;marginBottom=0;swimlaneFillColor=#ffffff;align=center;rounded=0;shadow=0;comic=0;labelBackgroundColor=none;strokeWidth=1;fontFamily=Verdana;fontSize=14" vertex="1" parent="1">
          <mxGeometry x="-150" y="-193" width="160" height="160" as="geometry" />
        </mxCell>
        <mxCell id="3rJ6d0Um_e3zVgP1eXMT-35" value="&lt;span style=&quot;font-weight: 400;&quot;&gt;ID_informe&lt;/span&gt;" style="shape=partialRectangle;top=0;left=0;right=0;bottom=1;html=1;align=left;verticalAlign=middle;fillColor=none;spacingLeft=34;spacingRight=4;whiteSpace=wrap;overflow=hidden;rotatable=0;points=[[0,0.5],[1,0.5]];portConstraint=eastwest;dropTarget=0;fontStyle=5;" vertex="1" parent="3rJ6d0Um_e3zVgP1eXMT-34">
          <mxGeometry y="26" width="160" height="30" as="geometry" />
        </mxCell>
        <mxCell id="3rJ6d0Um_e3zVgP1eXMT-36" value="PK" style="shape=partialRectangle;top=0;left=0;bottom=0;html=1;fillColor=none;align=left;verticalAlign=middle;spacingLeft=4;spacingRight=4;whiteSpace=wrap;overflow=hidden;rotatable=0;points=[];portConstraint=eastwest;part=1;" connectable="0" vertex="1" parent="3rJ6d0Um_e3zVgP1eXMT-35">
          <mxGeometry width="30" height="30" as="geometry" />
        </mxCell>
        <mxCell id="3rJ6d0Um_e3zVgP1eXMT-45" value="&lt;div style=&quot;text-align: center; text-wrap-mode: nowrap;&quot;&gt;+Nombre&lt;/div&gt;&lt;div&gt;&lt;br&gt;&lt;/div&gt;" style="shape=partialRectangle;top=0;left=0;right=0;bottom=0;html=1;align=left;verticalAlign=top;fillColor=none;spacingLeft=34;spacingRight=4;whiteSpace=wrap;overflow=hidden;rotatable=0;points=[[0,0.5],[1,0.5]];portConstraint=eastwest;dropTarget=0;" vertex="1" parent="3rJ6d0Um_e3zVgP1eXMT-34">
          <mxGeometry y="56" width="160" height="26" as="geometry" />
        </mxCell>
        <mxCell id="3rJ6d0Um_e3zVgP1eXMT-46" value="" style="shape=partialRectangle;top=0;left=0;bottom=0;html=1;fillColor=none;align=left;verticalAlign=top;spacingLeft=4;spacingRight=4;whiteSpace=wrap;overflow=hidden;rotatable=0;points=[];portConstraint=eastwest;part=1;" connectable="0" vertex="1" parent="3rJ6d0Um_e3zVgP1eXMT-45">
          <mxGeometry width="30" height="26" as="geometry" />
        </mxCell>
        <mxCell id="3rJ6d0Um_e3zVgP1eXMT-47" value="&lt;span style=&quot;text-align: center; text-wrap-mode: nowrap;&quot;&gt;+Apellido&lt;/span&gt;" style="shape=partialRectangle;top=0;left=0;right=0;bottom=0;html=1;align=left;verticalAlign=top;fillColor=none;spacingLeft=34;spacingRight=4;whiteSpace=wrap;overflow=hidden;rotatable=0;points=[[0,0.5],[1,0.5]];portConstraint=eastwest;dropTarget=0;" vertex="1" parent="3rJ6d0Um_e3zVgP1eXMT-34">
          <mxGeometry y="82" width="160" height="26" as="geometry" />
        </mxCell>
        <mxCell id="3rJ6d0Um_e3zVgP1eXMT-48" value="" style="shape=partialRectangle;top=0;left=0;bottom=0;html=1;fillColor=none;align=left;verticalAlign=top;spacingLeft=4;spacingRight=4;whiteSpace=wrap;overflow=hidden;rotatable=0;points=[];portConstraint=eastwest;part=1;" connectable="0" vertex="1" parent="3rJ6d0Um_e3zVgP1eXMT-47">
          <mxGeometry width="30" height="26" as="geometry" />
        </mxCell>
        <mxCell id="3rJ6d0Um_e3zVgP1eXMT-49" value="&lt;span style=&quot;text-align: center; text-wrap-mode: nowrap;&quot;&gt;+Telefono&lt;/span&gt;" style="shape=partialRectangle;top=0;left=0;right=0;bottom=0;html=1;align=left;verticalAlign=top;fillColor=none;spacingLeft=34;spacingRight=4;whiteSpace=wrap;overflow=hidden;rotatable=0;points=[[0,0.5],[1,0.5]];portConstraint=eastwest;dropTarget=0;" vertex="1" parent="3rJ6d0Um_e3zVgP1eXMT-34">
          <mxGeometry y="108" width="160" height="26" as="geometry" />
        </mxCell>
        <mxCell id="3rJ6d0Um_e3zVgP1eXMT-50" value="" style="shape=partialRectangle;top=0;left=0;bottom=0;html=1;fillColor=none;align=left;verticalAlign=top;spacingLeft=4;spacingRight=4;whiteSpace=wrap;overflow=hidden;rotatable=0;points=[];portConstraint=eastwest;part=1;" connectable="0" vertex="1" parent="3rJ6d0Um_e3zVgP1eXMT-49">
          <mxGeometry width="30" height="26" as="geometry" />
        </mxCell>
        <mxCell id="3rJ6d0Um_e3zVgP1eXMT-51" value="&lt;span style=&quot;text-align: center; text-wrap-mode: nowrap;&quot;&gt;+Correo_electronico&lt;/span&gt;" style="shape=partialRectangle;top=0;left=0;right=0;bottom=0;html=1;align=left;verticalAlign=top;fillColor=none;spacingLeft=34;spacingRight=4;whiteSpace=wrap;overflow=hidden;rotatable=0;points=[[0,0.5],[1,0.5]];portConstraint=eastwest;dropTarget=0;" vertex="1" parent="3rJ6d0Um_e3zVgP1eXMT-34">
          <mxGeometry y="134" width="160" height="26" as="geometry" />
        </mxCell>
        <mxCell id="3rJ6d0Um_e3zVgP1eXMT-52" value="" style="shape=partialRectangle;top=0;left=0;bottom=0;html=1;fillColor=none;align=left;verticalAlign=top;spacingLeft=4;spacingRight=4;whiteSpace=wrap;overflow=hidden;rotatable=0;points=[];portConstraint=eastwest;part=1;" connectable="0" vertex="1" parent="3rJ6d0Um_e3zVgP1eXMT-51">
          <mxGeometry width="30" height="26" as="geometry" />
        </mxCell>
        <mxCell id="3rJ6d0Um_e3zVgP1eXMT-141" style="edgeStyle=orthogonalEdgeStyle;rounded=0;orthogonalLoop=1;jettySize=auto;html=1;" edge="1" parent="1" source="3rJ6d0Um_e3zVgP1eXMT-53" target="2e49270ec7c68f3f-83">
          <mxGeometry relative="1" as="geometry" />
        </mxCell>
        <mxCell id="3rJ6d0Um_e3zVgP1eXMT-53" value="Soporte" style="swimlane;html=1;fontStyle=0;childLayout=stackLayout;horizontal=1;startSize=26;fillColor=#e0e0e0;horizontalStack=0;resizeParent=1;resizeLast=0;collapsible=1;marginBottom=0;swimlaneFillColor=#ffffff;align=center;rounded=0;shadow=0;comic=0;labelBackgroundColor=none;strokeWidth=1;fontFamily=Verdana;fontSize=14" vertex="1" parent="1">
          <mxGeometry x="-490" y="90" width="160" height="130" as="geometry" />
        </mxCell>
        <mxCell id="3rJ6d0Um_e3zVgP1eXMT-54" value="&lt;div&gt;&lt;span style=&quot;font-weight: 400; text-align: center; text-wrap-mode: nowrap;&quot;&gt;ID_Soporte&lt;/span&gt;&lt;/div&gt;" style="shape=partialRectangle;top=0;left=0;right=0;bottom=1;html=1;align=left;verticalAlign=middle;fillColor=none;spacingLeft=34;spacingRight=4;whiteSpace=wrap;overflow=hidden;rotatable=0;points=[[0,0.5],[1,0.5]];portConstraint=eastwest;dropTarget=0;fontStyle=5;" vertex="1" parent="3rJ6d0Um_e3zVgP1eXMT-53">
          <mxGeometry y="26" width="160" height="30" as="geometry" />
        </mxCell>
        <mxCell id="3rJ6d0Um_e3zVgP1eXMT-55" value="PK" style="shape=partialRectangle;top=0;left=0;bottom=0;html=1;fillColor=none;align=left;verticalAlign=middle;spacingLeft=4;spacingRight=4;whiteSpace=wrap;overflow=hidden;rotatable=0;points=[];portConstraint=eastwest;part=1;" connectable="0" vertex="1" parent="3rJ6d0Um_e3zVgP1eXMT-54">
          <mxGeometry width="30" height="30" as="geometry" />
        </mxCell>
        <mxCell id="3rJ6d0Um_e3zVgP1eXMT-56" value="&lt;div style=&quot;text-align: center;&quot;&gt;&lt;span style=&quot;background-color: initial; text-wrap-mode: nowrap;&quot;&gt;ID_roles&lt;/span&gt;&lt;/div&gt;" style="shape=partialRectangle;top=0;left=0;right=0;bottom=0;html=1;align=left;verticalAlign=top;fillColor=none;spacingLeft=34;spacingRight=4;whiteSpace=wrap;overflow=hidden;rotatable=0;points=[[0,0.5],[1,0.5]];portConstraint=eastwest;dropTarget=0;" vertex="1" parent="3rJ6d0Um_e3zVgP1eXMT-53">
          <mxGeometry y="56" width="160" height="26" as="geometry" />
        </mxCell>
        <mxCell id="3rJ6d0Um_e3zVgP1eXMT-57" value="FK" style="shape=partialRectangle;top=0;left=0;bottom=0;html=1;fillColor=none;align=left;verticalAlign=top;spacingLeft=4;spacingRight=4;whiteSpace=wrap;overflow=hidden;rotatable=0;points=[];portConstraint=eastwest;part=1;" connectable="0" vertex="1" parent="3rJ6d0Um_e3zVgP1eXMT-56">
          <mxGeometry width="30" height="26" as="geometry" />
        </mxCell>
        <mxCell id="3rJ6d0Um_e3zVgP1eXMT-58" value="+Usuarios" style="shape=partialRectangle;top=0;left=0;right=0;bottom=0;html=1;align=left;verticalAlign=top;fillColor=none;spacingLeft=34;spacingRight=4;whiteSpace=wrap;overflow=hidden;rotatable=0;points=[[0,0.5],[1,0.5]];portConstraint=eastwest;dropTarget=0;" vertex="1" parent="3rJ6d0Um_e3zVgP1eXMT-53">
          <mxGeometry y="82" width="160" height="26" as="geometry" />
        </mxCell>
        <mxCell id="3rJ6d0Um_e3zVgP1eXMT-59" value="" style="shape=partialRectangle;top=0;left=0;bottom=0;html=1;fillColor=none;align=left;verticalAlign=top;spacingLeft=4;spacingRight=4;whiteSpace=wrap;overflow=hidden;rotatable=0;points=[];portConstraint=eastwest;part=1;" connectable="0" vertex="1" parent="3rJ6d0Um_e3zVgP1eXMT-58">
          <mxGeometry width="30" height="26" as="geometry" />
        </mxCell>
        <mxCell id="3rJ6d0Um_e3zVgP1eXMT-60" value="" style="shape=partialRectangle;top=0;left=0;right=0;bottom=0;html=1;align=left;verticalAlign=top;fillColor=none;spacingLeft=34;spacingRight=4;whiteSpace=wrap;overflow=hidden;rotatable=0;points=[[0,0.5],[1,0.5]];portConstraint=eastwest;dropTarget=0;" vertex="1" parent="3rJ6d0Um_e3zVgP1eXMT-53">
          <mxGeometry y="108" width="160" height="22" as="geometry" />
        </mxCell>
        <mxCell id="3rJ6d0Um_e3zVgP1eXMT-61" value="" style="shape=partialRectangle;top=0;left=0;bottom=0;html=1;fillColor=none;align=left;verticalAlign=top;spacingLeft=4;spacingRight=4;whiteSpace=wrap;overflow=hidden;rotatable=0;points=[];portConstraint=eastwest;part=1;" connectable="0" vertex="1" parent="3rJ6d0Um_e3zVgP1eXMT-60">
          <mxGeometry width="30" height="22" as="geometry" />
        </mxCell>
        <mxCell id="3rJ6d0Um_e3zVgP1eXMT-98" style="edgeStyle=orthogonalEdgeStyle;rounded=0;orthogonalLoop=1;jettySize=auto;html=1;entryX=1;entryY=0.5;entryDx=0;entryDy=0;exitX=0;exitY=0.5;exitDx=0;exitDy=0;" edge="1" parent="1" source="3rJ6d0Um_e3zVgP1eXMT-69" target="3rJ6d0Um_e3zVgP1eXMT-101">
          <mxGeometry relative="1" as="geometry" />
        </mxCell>
        <mxCell id="3rJ6d0Um_e3zVgP1eXMT-68" value="Iniciar_sesion" style="swimlane;html=1;fontStyle=0;childLayout=stackLayout;horizontal=1;startSize=30;fillColor=#e0e0e0;horizontalStack=0;resizeParent=1;resizeLast=0;collapsible=1;marginBottom=0;swimlaneFillColor=#ffffff;align=center;rounded=0;shadow=0;comic=0;labelBackgroundColor=none;strokeWidth=1;fontFamily=Verdana;fontSize=14" vertex="1" parent="1">
          <mxGeometry x="50" y="75" width="180" height="98" as="geometry" />
        </mxCell>
        <mxCell id="3rJ6d0Um_e3zVgP1eXMT-69" value="ID_&lt;i style=&quot;background-color: initial;&quot;&gt;Iniciar_Sesion&lt;/i&gt;" style="shape=partialRectangle;top=0;left=0;right=0;bottom=1;html=1;align=left;verticalAlign=middle;fillColor=none;spacingLeft=34;spacingRight=4;whiteSpace=wrap;overflow=hidden;rotatable=0;points=[[0,0.5],[1,0.5]];portConstraint=eastwest;dropTarget=0;fontStyle=5;" vertex="1" parent="3rJ6d0Um_e3zVgP1eXMT-68">
          <mxGeometry y="30" width="180" height="30" as="geometry" />
        </mxCell>
        <mxCell id="3rJ6d0Um_e3zVgP1eXMT-70" value="PK" style="shape=partialRectangle;top=0;left=0;bottom=0;html=1;fillColor=none;align=left;verticalAlign=middle;spacingLeft=4;spacingRight=4;whiteSpace=wrap;overflow=hidden;rotatable=0;points=[];portConstraint=eastwest;part=1;" connectable="0" vertex="1" parent="3rJ6d0Um_e3zVgP1eXMT-69">
          <mxGeometry width="33.75" height="30" as="geometry" />
        </mxCell>
        <mxCell id="3rJ6d0Um_e3zVgP1eXMT-71" value="rol_Actual" style="shape=partialRectangle;top=0;left=0;right=0;bottom=0;html=1;align=left;verticalAlign=top;fillColor=none;spacingLeft=34;spacingRight=4;whiteSpace=wrap;overflow=hidden;rotatable=0;points=[[0,0.5],[1,0.5]];portConstraint=eastwest;dropTarget=0;" vertex="1" parent="3rJ6d0Um_e3zVgP1eXMT-68">
          <mxGeometry y="60" width="180" height="26" as="geometry" />
        </mxCell>
        <mxCell id="3rJ6d0Um_e3zVgP1eXMT-72" value="" style="shape=partialRectangle;top=0;left=0;bottom=0;html=1;fillColor=none;align=left;verticalAlign=top;spacingLeft=4;spacingRight=4;whiteSpace=wrap;overflow=hidden;rotatable=0;points=[];portConstraint=eastwest;part=1;" connectable="0" vertex="1" parent="3rJ6d0Um_e3zVgP1eXMT-71">
          <mxGeometry width="30" height="26" as="geometry" />
        </mxCell>
        <mxCell id="3rJ6d0Um_e3zVgP1eXMT-77" value="" style="shape=partialRectangle;top=0;left=0;right=0;bottom=0;html=1;align=left;verticalAlign=top;fillColor=none;spacingLeft=34;spacingRight=4;whiteSpace=wrap;overflow=hidden;rotatable=0;points=[[0,0.5],[1,0.5]];portConstraint=eastwest;dropTarget=0;" vertex="1" parent="3rJ6d0Um_e3zVgP1eXMT-68">
          <mxGeometry y="86" width="180" height="10" as="geometry" />
        </mxCell>
        <mxCell id="3rJ6d0Um_e3zVgP1eXMT-78" value="" style="shape=partialRectangle;top=0;left=0;bottom=0;html=1;fillColor=none;align=left;verticalAlign=top;spacingLeft=4;spacingRight=4;whiteSpace=wrap;overflow=hidden;rotatable=0;points=[];portConstraint=eastwest;part=1;" connectable="0" vertex="1" parent="3rJ6d0Um_e3zVgP1eXMT-77">
          <mxGeometry width="30" height="10" as="geometry" />
        </mxCell>
        <mxCell id="3rJ6d0Um_e3zVgP1eXMT-80" value="Tipo_equipo" style="swimlane;html=1;fontStyle=0;childLayout=stackLayout;horizontal=1;startSize=30;fillColor=#e0e0e0;horizontalStack=0;resizeParent=1;resizeLast=0;collapsible=1;marginBottom=0;swimlaneFillColor=#ffffff;align=center;rounded=0;shadow=0;comic=0;labelBackgroundColor=none;strokeWidth=1;fontFamily=Verdana;fontSize=14" vertex="1" parent="1">
          <mxGeometry x="-760" y="400" width="160" height="122" as="geometry" />
        </mxCell>
        <mxCell id="3rJ6d0Um_e3zVgP1eXMT-81" value="&lt;div style=&quot;font-weight: 400; text-align: center; text-wrap-mode: nowrap;&quot;&gt;&lt;span style=&quot;background-color: initial;&quot;&gt;ID_tipo_equipo&lt;/span&gt;&lt;/div&gt;" style="shape=partialRectangle;top=0;left=0;right=0;bottom=1;html=1;align=left;verticalAlign=middle;fillColor=none;spacingLeft=34;spacingRight=4;whiteSpace=wrap;overflow=hidden;rotatable=0;points=[[0,0.5],[1,0.5]];portConstraint=eastwest;dropTarget=0;fontStyle=5;" vertex="1" parent="3rJ6d0Um_e3zVgP1eXMT-80">
          <mxGeometry y="30" width="160" height="30" as="geometry" />
        </mxCell>
        <mxCell id="3rJ6d0Um_e3zVgP1eXMT-82" value="PK" style="shape=partialRectangle;top=0;left=0;bottom=0;html=1;fillColor=none;align=left;verticalAlign=middle;spacingLeft=4;spacingRight=4;whiteSpace=wrap;overflow=hidden;rotatable=0;points=[];portConstraint=eastwest;part=1;" connectable="0" vertex="1" parent="3rJ6d0Um_e3zVgP1eXMT-81">
          <mxGeometry width="30" height="30" as="geometry" />
        </mxCell>
        <mxCell id="3rJ6d0Um_e3zVgP1eXMT-83" value="&lt;div style=&quot;text-align: center; text-wrap-mode: nowrap;&quot;&gt;&lt;span style=&quot;background-color: initial;&quot;&gt;+Descripcion&lt;/span&gt;&lt;/div&gt;&lt;div&gt;&lt;span style=&quot;background-color: initial;&quot;&gt;&lt;br&gt;&lt;/span&gt;&lt;/div&gt;" style="shape=partialRectangle;top=0;left=0;right=0;bottom=0;html=1;align=left;verticalAlign=top;fillColor=none;spacingLeft=34;spacingRight=4;whiteSpace=wrap;overflow=hidden;rotatable=0;points=[[0,0.5],[1,0.5]];portConstraint=eastwest;dropTarget=0;" vertex="1" parent="3rJ6d0Um_e3zVgP1eXMT-80">
          <mxGeometry y="60" width="160" height="26" as="geometry" />
        </mxCell>
        <mxCell id="3rJ6d0Um_e3zVgP1eXMT-84" value="" style="shape=partialRectangle;top=0;left=0;bottom=0;html=1;fillColor=none;align=left;verticalAlign=top;spacingLeft=4;spacingRight=4;whiteSpace=wrap;overflow=hidden;rotatable=0;points=[];portConstraint=eastwest;part=1;" connectable="0" vertex="1" parent="3rJ6d0Um_e3zVgP1eXMT-83">
          <mxGeometry width="30" height="26" as="geometry" />
        </mxCell>
        <mxCell id="3rJ6d0Um_e3zVgP1eXMT-85" value="&lt;div&gt;&lt;span style=&quot;background-color: initial;&quot;&gt;+informacion_equipo&amp;nbsp;&lt;/span&gt;&lt;/div&gt;&lt;div&gt;&lt;br style=&quot;text-align: center; text-wrap-mode: nowrap;&quot;&gt;&lt;/div&gt;" style="shape=partialRectangle;top=0;left=0;right=0;bottom=0;html=1;align=left;verticalAlign=top;fillColor=none;spacingLeft=34;spacingRight=4;whiteSpace=wrap;overflow=hidden;rotatable=0;points=[[0,0.5],[1,0.5]];portConstraint=eastwest;dropTarget=0;" vertex="1" parent="3rJ6d0Um_e3zVgP1eXMT-80">
          <mxGeometry y="86" width="160" height="26" as="geometry" />
        </mxCell>
        <mxCell id="3rJ6d0Um_e3zVgP1eXMT-86" value="" style="shape=partialRectangle;top=0;left=0;bottom=0;html=1;fillColor=none;align=left;verticalAlign=top;spacingLeft=4;spacingRight=4;whiteSpace=wrap;overflow=hidden;rotatable=0;points=[];portConstraint=eastwest;part=1;" connectable="0" vertex="1" parent="3rJ6d0Um_e3zVgP1eXMT-85">
          <mxGeometry width="30" height="26" as="geometry" />
        </mxCell>
        <mxCell id="3rJ6d0Um_e3zVgP1eXMT-89" value="" style="shape=partialRectangle;top=0;left=0;right=0;bottom=0;html=1;align=left;verticalAlign=top;fillColor=none;spacingLeft=34;spacingRight=4;whiteSpace=wrap;overflow=hidden;rotatable=0;points=[[0,0.5],[1,0.5]];portConstraint=eastwest;dropTarget=0;" vertex="1" parent="3rJ6d0Um_e3zVgP1eXMT-80">
          <mxGeometry y="112" width="160" height="10" as="geometry" />
        </mxCell>
        <mxCell id="3rJ6d0Um_e3zVgP1eXMT-90" value="" style="shape=partialRectangle;top=0;left=0;bottom=0;html=1;fillColor=none;align=left;verticalAlign=top;spacingLeft=4;spacingRight=4;whiteSpace=wrap;overflow=hidden;rotatable=0;points=[];portConstraint=eastwest;part=1;" connectable="0" vertex="1" parent="3rJ6d0Um_e3zVgP1eXMT-89">
          <mxGeometry width="30" height="10" as="geometry" />
        </mxCell>
        <mxCell id="3rJ6d0Um_e3zVgP1eXMT-94" style="edgeStyle=orthogonalEdgeStyle;rounded=0;orthogonalLoop=1;jettySize=auto;html=1;" edge="1" parent="1" source="2e49270ec7c68f3f-81" target="3rJ6d0Um_e3zVgP1eXMT-92">
          <mxGeometry relative="1" as="geometry" />
        </mxCell>
        <mxCell id="3rJ6d0Um_e3zVgP1eXMT-97" style="edgeStyle=orthogonalEdgeStyle;rounded=0;orthogonalLoop=1;jettySize=auto;html=1;entryX=1;entryY=0.5;entryDx=0;entryDy=0;" edge="1" parent="1" source="3rJ6d0Um_e3zVgP1eXMT-11" target="2e49270ec7c68f3f-22">
          <mxGeometry relative="1" as="geometry" />
        </mxCell>
        <mxCell id="3rJ6d0Um_e3zVgP1eXMT-105" value="Datos" style="swimlane;html=1;fontStyle=0;childLayout=stackLayout;horizontal=1;startSize=30;fillColor=#e0e0e0;horizontalStack=0;resizeParent=1;resizeLast=0;collapsible=1;marginBottom=0;swimlaneFillColor=#ffffff;align=center;rounded=0;shadow=0;comic=0;labelBackgroundColor=none;strokeWidth=1;fontFamily=Verdana;fontSize=14" vertex="1" parent="1">
          <mxGeometry x="-760" y="130" width="160" height="230" as="geometry" />
        </mxCell>
        <mxCell id="3rJ6d0Um_e3zVgP1eXMT-106" value="&lt;div style=&quot;font-weight: 400; text-align: center; text-wrap-mode: nowrap;&quot;&gt;&lt;span style=&quot;text-align: left; text-wrap-mode: wrap;&quot;&gt;ID_datos&lt;/span&gt;&lt;/div&gt;" style="shape=partialRectangle;top=0;left=0;right=0;bottom=1;html=1;align=left;verticalAlign=middle;fillColor=none;spacingLeft=34;spacingRight=4;whiteSpace=wrap;overflow=hidden;rotatable=0;points=[[0,0.5],[1,0.5]];portConstraint=eastwest;dropTarget=0;fontStyle=5;" vertex="1" parent="3rJ6d0Um_e3zVgP1eXMT-105">
          <mxGeometry y="30" width="160" height="30" as="geometry" />
        </mxCell>
        <mxCell id="3rJ6d0Um_e3zVgP1eXMT-107" value="PK" style="shape=partialRectangle;top=0;left=0;bottom=0;html=1;fillColor=none;align=left;verticalAlign=middle;spacingLeft=4;spacingRight=4;whiteSpace=wrap;overflow=hidden;rotatable=0;points=[];portConstraint=eastwest;part=1;" connectable="0" vertex="1" parent="3rJ6d0Um_e3zVgP1eXMT-106">
          <mxGeometry width="30" height="30" as="geometry" />
        </mxCell>
        <mxCell id="3rJ6d0Um_e3zVgP1eXMT-108" value="&lt;div style=&quot;text-align: center; text-wrap-mode: nowrap;&quot;&gt;&lt;span style=&quot;text-align: left; text-wrap-mode: wrap;&quot;&gt;informacion_general&lt;/span&gt;&lt;/div&gt;" style="shape=partialRectangle;top=0;left=0;right=0;bottom=0;html=1;align=left;verticalAlign=top;fillColor=none;spacingLeft=34;spacingRight=4;whiteSpace=wrap;overflow=hidden;rotatable=0;points=[[0,0.5],[1,0.5]];portConstraint=eastwest;dropTarget=0;" vertex="1" parent="3rJ6d0Um_e3zVgP1eXMT-105">
          <mxGeometry y="60" width="160" height="26" as="geometry" />
        </mxCell>
        <mxCell id="3rJ6d0Um_e3zVgP1eXMT-109" value="" style="shape=partialRectangle;top=0;left=0;bottom=0;html=1;fillColor=none;align=left;verticalAlign=top;spacingLeft=4;spacingRight=4;whiteSpace=wrap;overflow=hidden;rotatable=0;points=[];portConstraint=eastwest;part=1;" connectable="0" vertex="1" parent="3rJ6d0Um_e3zVgP1eXMT-108">
          <mxGeometry width="30" height="26" as="geometry" />
        </mxCell>
        <mxCell id="3rJ6d0Um_e3zVgP1eXMT-110" value="&lt;div&gt;&lt;span style=&quot;background-color: initial;&quot;&gt;+informacion_equipo&amp;nbsp;&lt;/span&gt;&lt;/div&gt;&lt;div&gt;&lt;br style=&quot;text-align: center; text-wrap-mode: nowrap;&quot;&gt;&lt;/div&gt;" style="shape=partialRectangle;top=0;left=0;right=0;bottom=0;html=1;align=left;verticalAlign=top;fillColor=none;spacingLeft=34;spacingRight=4;whiteSpace=wrap;overflow=hidden;rotatable=0;points=[[0,0.5],[1,0.5]];portConstraint=eastwest;dropTarget=0;" vertex="1" parent="3rJ6d0Um_e3zVgP1eXMT-105">
          <mxGeometry y="86" width="160" height="26" as="geometry" />
        </mxCell>
        <mxCell id="3rJ6d0Um_e3zVgP1eXMT-111" value="" style="shape=partialRectangle;top=0;left=0;bottom=0;html=1;fillColor=none;align=left;verticalAlign=top;spacingLeft=4;spacingRight=4;whiteSpace=wrap;overflow=hidden;rotatable=0;points=[];portConstraint=eastwest;part=1;" connectable="0" vertex="1" parent="3rJ6d0Um_e3zVgP1eXMT-110">
          <mxGeometry width="30" height="26" as="geometry" />
        </mxCell>
        <mxCell id="3rJ6d0Um_e3zVgP1eXMT-115" value="&lt;div&gt;&lt;div&gt;+ubicacion&lt;/div&gt;&lt;/div&gt;&lt;div&gt;&lt;br&gt;&lt;/div&gt;" style="shape=partialRectangle;top=0;left=0;right=0;bottom=0;html=1;align=left;verticalAlign=top;fillColor=none;spacingLeft=34;spacingRight=4;whiteSpace=wrap;overflow=hidden;rotatable=0;points=[[0,0.5],[1,0.5]];portConstraint=eastwest;dropTarget=0;" vertex="1" parent="3rJ6d0Um_e3zVgP1eXMT-105">
          <mxGeometry y="112" width="160" height="26" as="geometry" />
        </mxCell>
        <mxCell id="3rJ6d0Um_e3zVgP1eXMT-116" value="" style="shape=partialRectangle;top=0;left=0;bottom=0;html=1;fillColor=none;align=left;verticalAlign=top;spacingLeft=4;spacingRight=4;whiteSpace=wrap;overflow=hidden;rotatable=0;points=[];portConstraint=eastwest;part=1;" connectable="0" vertex="1" parent="3rJ6d0Um_e3zVgP1eXMT-115">
          <mxGeometry width="30" height="26" as="geometry" />
        </mxCell>
        <mxCell id="3rJ6d0Um_e3zVgP1eXMT-117" value="&lt;div&gt;&lt;div&gt;&lt;div&gt;+lugar&lt;/div&gt;&lt;/div&gt;&lt;/div&gt;&lt;div&gt;&lt;br&gt;&lt;/div&gt;" style="shape=partialRectangle;top=0;left=0;right=0;bottom=0;html=1;align=left;verticalAlign=top;fillColor=none;spacingLeft=34;spacingRight=4;whiteSpace=wrap;overflow=hidden;rotatable=0;points=[[0,0.5],[1,0.5]];portConstraint=eastwest;dropTarget=0;" vertex="1" parent="3rJ6d0Um_e3zVgP1eXMT-105">
          <mxGeometry y="138" width="160" height="26" as="geometry" />
        </mxCell>
        <mxCell id="3rJ6d0Um_e3zVgP1eXMT-118" value="" style="shape=partialRectangle;top=0;left=0;bottom=0;html=1;fillColor=none;align=left;verticalAlign=top;spacingLeft=4;spacingRight=4;whiteSpace=wrap;overflow=hidden;rotatable=0;points=[];portConstraint=eastwest;part=1;" connectable="0" vertex="1" parent="3rJ6d0Um_e3zVgP1eXMT-117">
          <mxGeometry width="30" height="26" as="geometry" />
        </mxCell>
        <mxCell id="3rJ6d0Um_e3zVgP1eXMT-119" value="&lt;div&gt;&lt;div&gt;&lt;div&gt;&lt;div&gt;+cliente&lt;/div&gt;&lt;/div&gt;&lt;/div&gt;&lt;/div&gt;&lt;div&gt;&lt;br&gt;&lt;/div&gt;" style="shape=partialRectangle;top=0;left=0;right=0;bottom=0;html=1;align=left;verticalAlign=top;fillColor=none;spacingLeft=34;spacingRight=4;whiteSpace=wrap;overflow=hidden;rotatable=0;points=[[0,0.5],[1,0.5]];portConstraint=eastwest;dropTarget=0;" vertex="1" parent="3rJ6d0Um_e3zVgP1eXMT-105">
          <mxGeometry y="164" width="160" height="26" as="geometry" />
        </mxCell>
        <mxCell id="3rJ6d0Um_e3zVgP1eXMT-120" value="" style="shape=partialRectangle;top=0;left=0;bottom=0;html=1;fillColor=none;align=left;verticalAlign=top;spacingLeft=4;spacingRight=4;whiteSpace=wrap;overflow=hidden;rotatable=0;points=[];portConstraint=eastwest;part=1;" connectable="0" vertex="1" parent="3rJ6d0Um_e3zVgP1eXMT-119">
          <mxGeometry width="30" height="26" as="geometry" />
        </mxCell>
        <mxCell id="3rJ6d0Um_e3zVgP1eXMT-121" value="&lt;div&gt;&lt;div&gt;&lt;div&gt;&lt;div&gt;+tecnico&lt;/div&gt;&lt;/div&gt;&lt;/div&gt;&lt;/div&gt;" style="shape=partialRectangle;top=0;left=0;right=0;bottom=0;html=1;align=left;verticalAlign=top;fillColor=none;spacingLeft=34;spacingRight=4;whiteSpace=wrap;overflow=hidden;rotatable=0;points=[[0,0.5],[1,0.5]];portConstraint=eastwest;dropTarget=0;" vertex="1" parent="3rJ6d0Um_e3zVgP1eXMT-105">
          <mxGeometry y="190" width="160" height="26" as="geometry" />
        </mxCell>
        <mxCell id="3rJ6d0Um_e3zVgP1eXMT-122" value="" style="shape=partialRectangle;top=0;left=0;bottom=0;html=1;fillColor=none;align=left;verticalAlign=top;spacingLeft=4;spacingRight=4;whiteSpace=wrap;overflow=hidden;rotatable=0;points=[];portConstraint=eastwest;part=1;" connectable="0" vertex="1" parent="3rJ6d0Um_e3zVgP1eXMT-121">
          <mxGeometry width="30" height="26" as="geometry" />
        </mxCell>
        <mxCell id="3rJ6d0Um_e3zVgP1eXMT-112" value="" style="shape=partialRectangle;top=0;left=0;right=0;bottom=0;html=1;align=left;verticalAlign=top;fillColor=none;spacingLeft=34;spacingRight=4;whiteSpace=wrap;overflow=hidden;rotatable=0;points=[[0,0.5],[1,0.5]];portConstraint=eastwest;dropTarget=0;" vertex="1" parent="3rJ6d0Um_e3zVgP1eXMT-105">
          <mxGeometry y="216" width="160" height="14" as="geometry" />
        </mxCell>
        <mxCell id="3rJ6d0Um_e3zVgP1eXMT-113" value="" style="shape=partialRectangle;top=0;left=0;bottom=0;html=1;fillColor=none;align=left;verticalAlign=top;spacingLeft=4;spacingRight=4;whiteSpace=wrap;overflow=hidden;rotatable=0;points=[];portConstraint=eastwest;part=1;" connectable="0" vertex="1" parent="3rJ6d0Um_e3zVgP1eXMT-112">
          <mxGeometry width="30" height="14" as="geometry" />
        </mxCell>
        <mxCell id="3rJ6d0Um_e3zVgP1eXMT-128" style="edgeStyle=orthogonalEdgeStyle;rounded=0;orthogonalLoop=1;jettySize=auto;html=1;" edge="1" parent="1" source="4JsmEMZr_gFzECtk1Gia-4" target="2e49270ec7c68f3f-26">
          <mxGeometry relative="1" as="geometry" />
        </mxCell>
        <mxCell id="3rJ6d0Um_e3zVgP1eXMT-135" style="edgeStyle=orthogonalEdgeStyle;rounded=0;orthogonalLoop=1;jettySize=auto;html=1;entryX=0;entryY=0.5;entryDx=0;entryDy=0;" edge="1" parent="1" source="4JsmEMZr_gFzECtk1Gia-17" target="3rJ6d0Um_e3zVgP1eXMT-129">
          <mxGeometry relative="1" as="geometry" />
        </mxCell>
        <mxCell id="3rJ6d0Um_e3zVgP1eXMT-136" style="edgeStyle=orthogonalEdgeStyle;rounded=0;orthogonalLoop=1;jettySize=auto;html=1;entryX=0;entryY=0.5;entryDx=0;entryDy=0;" edge="1" parent="1" source="3rJ6d0Um_e3zVgP1eXMT-81" target="4JsmEMZr_gFzECtk1Gia-23">
          <mxGeometry relative="1" as="geometry" />
        </mxCell>
        <mxCell id="3rJ6d0Um_e3zVgP1eXMT-137" style="edgeStyle=orthogonalEdgeStyle;rounded=0;orthogonalLoop=1;jettySize=auto;html=1;entryX=0;entryY=0.5;entryDx=0;entryDy=0;" edge="1" parent="1" source="3rJ6d0Um_e3zVgP1eXMT-106" target="4JsmEMZr_gFzECtk1Gia-21">
          <mxGeometry relative="1" as="geometry" />
        </mxCell>
      </root>
    </mxGraphModel>
  </diagram>
</mxfile>
